<svg xmlns="http://www.w3.org/2000/svg" viewBox="0 0 3400 1200">
  <title>bigtest</title>
  <polygon points="656.99 100 223.74 250.95 253.74 849.05 656.99 1100 1060.24 849.05 1090.24 250.95 656.99 100" fill="#14315d"/>
  <polygon points="656.99 226.64 533.55 271.47 509.8 600.51 656.8 673.51 628.61 956.3 656.49 974.1 697.88 947.76 841.8 600.51 696.8 522.51 766.06 266.25 656.99 226.64" fill="#fff"/>
  <polygon points="333.03 344.29 533.55 271.47 509.8 600.51 656.8 673.51 628.61 956.3 363.03 786.74 333.03 344.29" fill="#f74d7b"/>
  <polygon points="950.95 786.74 697.88 947.76 841.8 600.51 696.8 522.51 766.06 266.25 980.95 344.29 950.95 786.74" fill="#26abe8"/>
  <path d="M1615.31,585a86,86,0,0,0,27.07-23.06c12.92-16.41,19.47-36.72,19.47-60.37a99.64,99.64,0,0,0-7.4-38,101.67,101.67,0,0,0-21.12-32.17c-9.23-9.54-21.35-17.16-36-22.63-14.44-5.39-30.7-8.12-48.32-8.12H1348.75V782.44h206.42c35.69,0,63.91-10.19,83.87-30.28s30.06-45.93,30.06-76.85c0-24.36-7.32-46-21.75-64.27C1638.13,599.36,1627.4,590.65,1615.31,585Zm-56.77-47.09c-6.33,5.74-14.87,8.53-26.11,8.53H1441.9V484.35h90.53c11.22,0,19.75,2.82,26.07,8.62,6.14,5.65,9.13,12.93,9.13,22.28C1567.63,524.94,1564.65,532.34,1558.54,537.89ZM1441.9,630.17h93.75c12.79,0,22.34,3.19,29.19,9.74s10,14.44,10,24.39c0,10.94-3.23,19.18-9.88,25.18s-16.65,9.21-29.35,9.21H1441.9Z" fill="#14315d"/>
  <rect x="1708.57" y="501.84" width="84.82" height="280.6" fill="#14315d"/>
  <path d="M1750.71,370.12a48.9,48.9,0,0,0-34.44,83.57h0a47.19,47.19,0,0,0,34.44,14.41,49.22,49.22,0,0,0,49.4-49.12,47.09,47.09,0,0,0-14.45-34.61A48.09,48.09,0,0,0,1750.71,370.12Z" fill="#14315d"/>
  <path d="M2034.3,524.12c-20.58-19.26-45.71-29-75-29-36.59,0-66.87,12.88-90,38.3-22.95,25.22-34.59,60.39-34.59,104.55,0,44.55,11.7,79.74,34.77,104.6,23.21,25,53.43,37.71,89.82,37.71,28.8,0,53.94-10,75-29.65v6.58c0,11.71-2,21.84-5.86,30.1-3.82,8.09-8.77,14-15.13,18.1a75.31,75.31,0,0,1-21.25,9.54,92.62,92.62,0,0,1-23.84,3c-33.59,0-59-9.76-77.77-29.85l-6.67-7.14-39.72,63.68,4.83,4.2c17,14.72,35.26,25.42,54.38,31.8,19,6.31,40.8,9.51,65,9.51a250.1,250.1,0,0,0,41.53-3.33A164.86,164.86,0,0,0,2050,874.29a122,122,0,0,0,35.47-23.9c10-9.85,18.25-22.93,24.43-38.91s9.23-34.1,9.23-54.26V501.84H2034.3ZM1981.91,703c-18.43,0-32.73-5.63-43.7-17.2s-16.47-27.41-16.47-48.08,5.38-36.4,16.47-48.08h0c11-11.57,25.27-17.2,43.7-17.2a68.32,68.32,0,0,1,30.5,7.64c9.26,4.62,16.61,10.27,21.89,16.83V678c-5.29,6.72-12.69,12.5-22,17.19C2002,700.38,1991.78,703,1981.91,703Z" fill="#14315d"/>
  <polygon points="2071.87 454.35 2179.56 454.35 2179.56 782.44 2272.71 782.44 2272.71 454.35 2379.86 454.35 2379.86 370.6 2071.87 370.6 2071.87 454.35" fill="#14315d"/>
  <path d="M2462,495.13c-27.37,0-52.51,6.63-74.7,19.7a138.76,138.76,0,0,0-51.91,53.2C2323.22,590.17,2317,615,2317,641.74c0,43.82,14.29,79.75,42.46,106.79s64,40.63,106.84,40.63a200.52,200.52,0,0,0,63.19-10c20.35-6.76,37.56-16.51,51.18-29l4.76-4.36-39.79-59-6.44,6.29c-7.22,7.07-17.18,12.87-29.6,17.22C2497,714.7,2485,717,2474.12,717c-19.75,0-35.84-5.1-47.82-15.16-9.76-8.2-16.18-17.89-19.47-29.46h195.64V648.45c0-45-13-82.2-38.6-110.45C2538.06,509.55,2503.8,495.13,2462,495.13Zm-52.78,104.44a63.88,63.88,0,0,1,10.59-16.1A46.06,46.06,0,0,1,2437,571.86a65.54,65.54,0,0,1,25.07-4.53,70.12,70.12,0,0,1,26.45,4.68c7.43,3,13.29,7,17.41,11.77a62.83,62.83,0,0,1,10.21,16.06,55.31,55.31,0,0,1,3,9.15H2406A57.14,57.14,0,0,1,2409.25,599.57Z" fill="#14315d"/>
  <path d="M2843.38,634.24a142.85,142.85,0,0,0-26.75-15.78,153.22,153.22,0,0,0-30.49-10.25l-29-6.4-25.32-5.59c-6.35-1.4-11.29-3.41-14.71-6-3-2.28-3.44-4.33-3.44-6,0-3.25.83-8.1,8-12.8,6.31-4.14,15.06-6.24,26-6.24a108.21,108.21,0,0,1,41.75,8.29c13.17,5.48,23.73,12.3,31.37,20.28l7,7.28,36.34-64-5-4c-31.62-25.14-69.1-37.88-111.41-37.88-35.54,0-64,8.76-84.68,26-21.06,17.62-31.73,39.57-31.73,65.24,0,15.39,3.26,29,9.7,40.34a71.1,71.1,0,0,0,25.22,26.51,153.12,153.12,0,0,0,32.19,14.41,337.05,337.05,0,0,0,34.23,9l30.62,6.35c8.32,1.72,15.09,4.24,20.11,7.47,4.7,3,5.3,5.82,5.3,7.91,0,6.08-2.53,10.63-8,14.32-6.2,4.21-16,6.34-29,6.34-14.88,0-30.76-3.51-47.21-10.42s-29.85-15.14-39.53-24.31l-6.78-6.43-38.3,63.73,4.49,4.14c14.66,13.53,33.21,24.27,55.13,31.92a208.25,208.25,0,0,0,68.71,11.43c37.47,0,67.48-8.48,89.2-25.19,22.32-17.18,33.64-39.78,33.64-67.18,0-13.72-2.5-26.08-7.44-36.73S2851.8,640.59,2843.38,634.24Z" fill="#14315d"/>
  <path d="M3064.68,695.34l-9.17,10.84c-.61.72-2.29,2.15-6.67,3.66a36.54,36.54,0,0,1-12.05,2c-5.18,0-8.93-1.72-11.79-5.42-3.28-4.23-4.88-9.67-4.88-16.62v-112h54v-76h-54V429.06H2935.3v72.78h-44v76h44V708.34c0,26,7.22,46.18,21.47,60s34.7,20.79,60.95,20.79c27.93,0,49.22-6.44,63.3-19.12l3.44-3.1Z" fill="#14315d"/>
</svg>
