<svg id="Layer_1" data-name="Layer 1" xmlns="http://www.w3.org/2000/svg" xmlns:xlink="http://www.w3.org/1999/xlink" viewBox="0 0 217.44 231.77"><defs><style>.cls-1{fill:url(#linear-gradient);}</style><linearGradient id="linear-gradient" y1="115.89" x2="217.44" y2="115.89" gradientUnits="userSpaceOnUse"><stop offset="0" stop-color="#26abe8"/><stop offset="1" stop-color="#26abe8" stop-opacity="0.4"/></linearGradient></defs><title>reusable</title><path class="cls-1" d="M15.15,81.54a101.53,101.53,0,0,0-8.88,41.74,102.58,102.58,0,0,0,2.47,22.4l-6.07,1.61a109.28,109.28,0,0,1-2.67-24A108.53,108.53,0,0,1,101.1,15l8.79-.59-10-10L104.3,0l17.93,17.93L104.3,35.86l-4.43-4.44,10.9-10.9-10.87.9A102.4,102.4,0,0,0,15.15,81.54ZM168,123.28a56.19,56.19,0,1,1-56.19-56.17A56.24,56.24,0,0,1,168,123.28Zm-6.27,0a49.92,49.92,0,1,0-49.92,49.9A50,50,0,0,0,161.73,123.28Zm55.71,58-1.62-6-13.66,3.66L206,171a107.4,107.4,0,0,0,11-47.68,108.67,108.67,0,0,0-76.4-103.65L139,25.69a102.38,102.38,0,0,1,71.76,97.59,101.21,101.21,0,0,1-9.69,43.49l-4.65,9.88-4-14.94-6.05,1.63,6.56,24.49ZM108.52,225.5a102.22,102.22,0,0,1-83.91-43.8l-6.27-9,14.94,4,1.62-6.05-24.5-6.57L3.84,188.58l6.05,1.62,3.66-13.66,4.91,7.28A108.56,108.56,0,0,0,182.25,202.9l-4.43-4.45A101.56,101.56,0,0,1,108.52,225.5Z"/></svg>