<svg xmlns="http://www.w3.org/2000/svg" viewBox="0 0 142.98 35.67"><defs><style>.cls-1,.cls-5{fill:#14315d;}.cls-1,.cls-2,.cls-3,.cls-4{fill-rule:evenodd;}.cls-2{fill:#f74d7b;}.cls-3{fill:#26abe8;}.cls-4{fill:#fff;}</style></defs><g id="Text"><path class="cls-1" d="M15.53,0,0,8.94V26.73l15.53,8.94,15.52-8.94V8.94Z"/><path class="cls-2" d="M7.76,22.31V13.46L3.93,11.2V24.47l11.6,6.68V26.73Z"/><path class="cls-3" d="M23.19,22.31V13.46L27,11.2V24.47L15.53,31.15V26.73Z"/><path class="cls-4" d="M23.19,13.46,27,11.2,15.53,4.52,3.93,11.2l3.83,2.26,2.75-1.67,7.77,4.52,3.83-2.26L14.35,9.53l1.08-.59Z"/><path class="cls-5" d="M40.09,12.09V24.37h3V19.75h4.62V17.3H43.14V14.74h5.21V12.09ZM54,14.64v3.15h1.57c1.28,0,1.87-.59,1.87-1.67s-.59-1.58-1.77-1.58H54Zm1.77-2.55c3.14,0,4.71,1.57,4.71,4a3.79,3.79,0,0,1-1.86,3.44l2.55,4.91H57.88l-2.06-4.23c-.3,0-.69.1-1,.1H54v4.13H51V12.09Zm13.17,9.82c2,0,2.94-1.47,2.94-3.63s-1-3.64-2.94-3.64S66,16.21,66,18.28s1,3.63,2.85,3.63m0-10c3.73,0,6.09,2.46,6.09,6.39s-2.36,6.39-6.09,6.39-6.1-2.36-6.1-6.39,2.36-6.39,6.1-6.39m8.84.2h2.65l4.82,7.27V12.09h3V24.37H85.59L80.78,17.3v7.07h-3ZM94,14.74H90.5V12.09h10.13v2.65H97.09v9.63H94Zm9.73,5.9a6,6,0,0,0,3.54,1.47c1,0,1.47-.49,1.47-1.18s-.39-1.08-2.36-1.57c-2.45-.69-3.53-1.67-3.53-3.74,0-2.55,2-3.73,4.52-3.73a6.51,6.51,0,0,1,4.42,1.67l-1.38,1.87a5.49,5.49,0,0,0-3-1.18c-.88,0-1.47.39-1.47,1s.69,1,2.75,1.67S112,18.67,112,20.64c0,2.55-1.76,4-4.61,4a6.92,6.92,0,0,1-5-2.17Zm10.91-8.55h3V24.37h-3Zm9.23,2.65v7h1.48c2.06,0,3-1.18,3-3.54s-1-3.54-3-3.54Zm1.48-2.65c4.13,0,6.19,2.45,6.19,6,0,4.42-2.16,6.39-6.68,6.39h-4V12.09Zm8.94,0h8.55v2.65h-5.5V17h5v2.46h-5v2.26H143v2.65h-8.65V12.09Z"/></g></svg>