<svg id="Layer_1" data-name="Layer 1" xmlns="http://www.w3.org/2000/svg" viewBox="0 0 35.61 40.76"><defs><style>.cls-1{fill:#14315d;}.cls-2{fill:#fff;}.cls-3{fill:#f74d7b;}.cls-4{fill:#26abe8;}</style></defs><title>icon</title><polygon class="cls-1" points="17.66 0 0 6.15 1.22 30.53 17.66 40.76 34.1 30.53 35.32 6.15 17.66 0"/><polygon class="cls-2" points="17.66 3.97 12.23 5.94 11.19 20.4 17.65 23.61 16.41 36.05 17.64 36.83 19.46 35.67 25.79 20.4 19.41 16.97 22.45 5.71 17.66 3.97"/><polygon class="cls-3" points="3.42 9.14 12.23 5.94 11.19 20.4 17.65 23.61 16.41 36.05 4.74 28.59 3.42 9.14"/><polygon class="cls-4" points="30.58 28.59 19.46 35.67 25.79 20.4 19.41 16.97 22.45 5.71 31.9 9.14 30.58 28.59"/></svg>