<svg id="Layer_1" data-name="Layer 1" xmlns="http://www.w3.org/2000/svg" viewBox="0 0 17.5 20" fill="#14315D"><title>discord</title><path d="M17.5,20c-2.52-2.23-1.71-1.49-4.64-4.21l.53,1.85H2.05a2.05,2.05,0,0,1-2-2.06V2.06A2.05,2.05,0,0,1,2.05,0h13.4A2.05,2.05,0,0,1,17.5,2.06ZM13.21,5.71a5,5,0,0,0-2.81-1l-.14.16a6.66,6.66,0,0,1,2.49,1.27A8.51,8.51,0,0,0,5.28,5.8c-.37.17-.59.29-.59.29A6.75,6.75,0,0,1,7.32,4.78l-.1-.12a5,5,0,0,0-2.81,1A13.39,13.39,0,0,0,3,11.54a3.63,3.63,0,0,0,3,1.52l.67-.83a3.11,3.11,0,0,1-1.75-1.18l.41.25a7.26,7.26,0,0,0,6.24.35,5.72,5.72,0,0,0,1.15-.59,3.16,3.16,0,0,1-1.81,1.19c.3.38.66.81.66.81a3.66,3.66,0,0,0,3.06-1.52A13.39,13.39,0,0,0,13.21,5.71ZM8,9.5a1.07,1.07,0,0,1-1,1.11,1.11,1.11,0,0,1,0-2.22A1.06,1.06,0,0,1,8,9.5Zm2.63,1.11a1.11,1.11,0,1,1,1-1.11A1.07,1.07,0,0,1,10.59,10.61Z"/></svg>
