<svg id="Layer_1" data-name="Layer 1" xmlns="http://www.w3.org/2000/svg" viewBox="0 0 20 16.24"><defs><style>.cls-1{fill:#14315d;}</style></defs><title>tw</title><path class="cls-1" d="M18,4.58A11.59,11.59,0,0,1,6.29,16.24,11.54,11.54,0,0,1,0,14.4a8.1,8.1,0,0,0,1,0A8.17,8.17,0,0,0,6.08,12.7,4.08,4.08,0,0,1,2.25,9.86,4.81,4.81,0,0,0,3,9.92,4.26,4.26,0,0,0,4.1,9.78a4.1,4.1,0,0,1-3.29-4v0a4,4,0,0,0,1.86.52A4.07,4.07,0,0,1,.84,2.82,4,4,0,0,1,1.4.75,11.63,11.63,0,0,0,9.85,5a4.23,4.23,0,0,1-.1-.94,4.1,4.1,0,0,1,7.09-2.81,7.88,7.88,0,0,0,2.6-1,4,4,0,0,1-1.8,2.26A8.23,8.23,0,0,0,20,1.93a9,9,0,0,1-2.06,2.12A4.7,4.7,0,0,1,18,4.58Z"/></svg>