<svg id="Layer_1" data-name="Layer 1" xmlns="http://www.w3.org/2000/svg" viewBox="0 0 125.61 40.76"><defs><style>.cls-1{fill:#14315d;}.cls-2{fill:#fff;}.cls-3{fill:#f74d7b;}.cls-4{fill:#26abe8;}</style></defs><title>bigtest-logo</title><polygon class="cls-1" points="17.66 0 0 6.15 1.22 30.53 17.66 40.76 34.1 30.53 35.32 6.15 17.66 0"/><polygon class="cls-2" points="17.66 3.97 12.23 5.94 11.19 20.4 17.65 23.61 16.41 36.05 17.64 36.83 19.46 35.67 25.79 20.4 19.41 16.97 22.45 5.71 17.66 3.97"/><polygon class="cls-3" points="3.42 9.14 12.23 5.94 11.19 20.4 17.65 23.61 16.41 36.05 4.74 28.59 3.42 9.14"/><polygon class="cls-4" points="30.58 28.59 19.46 35.67 25.79 20.4 19.41 16.97 22.45 5.71 31.9 9.14 30.58 28.59"/><path class="cls-1" d="M44.22,12.83h7.62c2.66,0,3.93,1.73,3.93,3.42a3,3,0,0,1-2.3,3.08A3.23,3.23,0,0,1,56,22.62c0,1.95-1.31,3.64-4,3.64H44.22ZM51.05,18a1.13,1.13,0,0,0,1.19-1.16,1.12,1.12,0,0,0-1.19-1.15H47.69V18Zm.12,5.36a1.2,1.2,0,0,0,1.33-1.23,1.24,1.24,0,0,0-1.33-1.27H47.69v2.5Z"/><path class="cls-1" d="M58.42,12.83h3.46V26.26H58.42Z"/><path class="cls-1" d="M71.39,12.61a6.33,6.33,0,0,1,5.74,3.12l-2.9,1.53a3.34,3.34,0,0,0-2.84-1.59,3.71,3.71,0,0,0-3.75,3.89,3.71,3.71,0,0,0,3.75,3.88,4.22,4.22,0,0,0,2.54-.8V21.51H70.84V18.63h6.49v5.26a7.75,7.75,0,0,1-5.94,2.61c-4,0-7.27-2.67-7.27-6.94S67.38,12.61,71.39,12.61Z"/><path class="cls-1" d="M83.55,14.32H79.3V12.83H89.49v1.49H85.22V26.26H83.55Z"/><path class="cls-1" d="M92.21,12.83H101v1.49H93.88v4.33h7v1.49h-7v4.63H101v1.49h-8.8Z"/><path class="cls-1" d="M104.35,23.1A5.64,5.64,0,0,0,108.58,25c2.39,0,3.16-1.29,3.16-2.31,0-1.61-1.63-2.06-3.41-2.54-2.15-.56-4.55-1.17-4.55-3.81,0-2.21,2-3.72,4.61-3.72a6.32,6.32,0,0,1,4.78,1.87l-1,1.23a5.14,5.14,0,0,0-3.89-1.61c-1.61,0-2.76.86-2.76,2.13s1.56,1.75,3.27,2.22c2.19.58,4.69,1.27,4.69,4.09,0,2-1.33,3.94-5,3.94a6.65,6.65,0,0,1-5.16-2.13Z"/><path class="cls-1" d="M119.67,14.32h-4.25V12.83h10.19v1.49h-4.27V26.26h-1.67Z"/></svg>