<svg id="Layer_1" data-name="Layer 1" xmlns="http://www.w3.org/2000/svg" xmlns:xlink="http://www.w3.org/1999/xlink" viewBox="0 0 245.97 246"><defs><style>.cls-1{fill:url(#linear-gradient);}.cls-2{fill:url(#linear-gradient-2);}.cls-3{fill:url(#linear-gradient-3);}.cls-4{fill:url(#linear-gradient-4);}.cls-5{fill:url(#linear-gradient-5);}.cls-6{fill:url(#linear-gradient-6);}.cls-7{fill:url(#linear-gradient-7);}.cls-8{fill:url(#linear-gradient-8);}</style><linearGradient id="linear-gradient" x1="1" y1="123" x2="244.97" y2="123" gradientUnits="userSpaceOnUse"><stop offset="0" stop-color="#f74d7b"/><stop offset="1" stop-color="#f74d7b" stop-opacity="0.4"/></linearGradient><linearGradient id="linear-gradient-2" x1="115.78" y1="145.87" x2="181.17" y2="145.87" xlink:href="#linear-gradient"/><linearGradient id="linear-gradient-3" x1="64.77" y1="109.52" x2="150.68" y2="109.52" xlink:href="#linear-gradient"/><linearGradient id="linear-gradient-4" x1="133.1" y1="136.83" x2="142.76" y2="136.83" gradientTransform="translate(232.16 -33.07) rotate(74.24)" xlink:href="#linear-gradient"/><linearGradient id="linear-gradient-5" x1="150.21" y1="141.19" x2="156.65" y2="141.19" gradientTransform="translate(247.63 -44.82) rotate(74.24)" xlink:href="#linear-gradient"/><linearGradient id="linear-gradient-6" x1="179.08" y1="64.28" x2="184.29" y2="64.28" xlink:href="#linear-gradient"/><linearGradient id="linear-gradient-7" x1="155.97" y1="202.41" x2="161.19" y2="202.41" xlink:href="#linear-gradient"/><linearGradient id="linear-gradient-8" x1="20.25" y1="123" x2="25.47" y2="123" xlink:href="#linear-gradient"/></defs><title>user-experience</title><path class="cls-1" d="M17.28,228.69C27.93,239.34,43.19,245,61.4,245a100.2,100.2,0,0,0,11.43-.67c15.78-1.83,32.5-7.13,49.68-15.77l.45-.23.45.23a170.07,170.07,0,0,0,30.71,12A114.74,114.74,0,0,0,184.55,245c18.18,0,33.43-5.64,44.11-16.31,15-15,19.84-38.94,13.61-67.37a162.71,162.71,0,0,0-13.79-37.84l-.22-.45.22-.45a169.92,169.92,0,0,0,12-30.73c8.77-31.67,4.57-58.14-11.83-74.54S185.78-3.29,154.12,5.48a169.69,169.69,0,0,0-30.73,12l-.45.23-.45-.23A162.94,162.94,0,0,0,84.64,3.69C56.21-2.54,32.29,2.3,17.28,17.31,7.66,26.93,2.08,40.47,1.15,56.47.3,70.89,3.24,87.58,9.65,104.71l.25.69-.57.45a21.82,21.82,0,0,0,0,34.3l.57.45-.25.68C3.24,158.42.3,175.11,1.15,189.53,2.08,205.53,7.66,219.07,17.28,228.69ZM225,225c-9.79,9.79-23.69,14.78-40.43,14.78a109.7,109.7,0,0,1-29-4.28,161.8,161.8,0,0,1-25.07-9.36l-1.77-.83,1.7-.95c3.77-2.11,7.59-4.4,11.35-6.8l.69-.44.56.58A21.85,21.85,0,0,0,177.2,191l-.44-.7.6-.56c2.12-2,4.23-4,6.26-6a243.35,243.35,0,0,0,40.72-53.24l.95-1.7.83,1.77C244.76,170.29,244.33,205.63,225,225ZM130.42,19.87a161.81,161.81,0,0,1,25.09-9.37C185.28,2.26,210,6,225,21s18.75,39.68,10.5,69.46a162,162,0,0,1-9.36,25.09l-.83,1.77-1-1.71A234.86,234.86,0,0,0,198.91,79l-.53-.62.51-.64a21.88,21.88,0,0,0,.66-26.08l-4.13,3.21a16.65,16.65,0,1,1-13.73-7.24,16.69,16.69,0,0,1,7.61,1.84L192,45a21.88,21.88,0,0,0-10.28-2.57,21.62,21.62,0,0,0-13.47,4.66l-.64.5-.62-.52a234.46,234.46,0,0,0-36.61-25.41l-1.7-.95ZM21,21C40.34,1.63,75.68,1.2,115.49,19.85l1.77.83-1.71.95A243.21,243.21,0,0,0,62.31,62.35,252,252,0,0,0,30.13,101.6l-.4.62L29,102a22.1,22.1,0,0,0-13.6.43l-.93.34-.35-.93C1.52,67.43,4,38,21,21ZM6.22,123a16.64,16.64,0,0,1,31.05-8.33l4.67-2.34A21.86,21.86,0,0,0,35.31,105l-.8-.56.54-.82A246.7,246.7,0,0,1,66,66c17.32-17.32,36.86-31.93,56.5-42.24l.47-.25.46.25a227.07,227.07,0,0,1,39.89,27l.69.58-.5.75a21.85,21.85,0,0,0,30.31,30.3l.75-.5.58.69a227.87,227.87,0,0,1,27,39.9l.24.46-.24.47c-10.31,19.64-24.92,39.17-42.24,56.49-1.93,1.93-3.92,3.86-5.92,5.73l-.65.61-.68-.58a21.88,21.88,0,0,0-14.1-5.17,21.65,21.65,0,0,0-12.61,4l3.21,4.13a16.43,16.43,0,0,1,9.4-2.91,16.62,16.62,0,1,1-14.8,9l-4.49-2.67a21.92,21.92,0,0,0-2.57,10.29,21.67,21.67,0,0,0,2.25,9.65l.4.8-.75.48c-5,3.21-10.14,6.18-15.21,8.85l-.46.25-.47-.25C102.85,211.88,83.32,197.28,66,180a247.54,247.54,0,0,1-31-37.62l-.54-.82.81-.55a21.91,21.91,0,0,0,9.42-18c0-.32,0-.63,0-1l-5.2.46V123a16.64,16.64,0,0,1-33.28,0Zm7.92,21.15.35-.93.93.34A21.84,21.84,0,0,0,29,144l.71-.2.4.61a251.69,251.69,0,0,0,32.19,39.27,243.18,243.18,0,0,0,53.23,40.71l1.7.95-1.77.83c-19,8.89-37.63,13.59-53.88,13.59h0c-16.92,0-31-5.1-40.61-14.73C4,208,1.52,178.56,14.14,144.15Z"/><path class="cls-2" d="M115.78,166.52h65.39V161.3h-7.46V142.11a17.12,17.12,0,0,0-12.42-16.41l-1.74-.49-1.42,5,1.74.49a11.87,11.87,0,0,1,8.62,11.38V161.3h-15v-9.87h-5.22v9.87H115.78Z"/><path class="cls-3" d="M134.17,124.05l.41-.46,14.68,4.15,1.42-5-14.51-4.09V107.75l.43-.3a24.29,24.29,0,0,0,10.64-20.07V76.8a24.27,24.27,0,0,0-48.54,0V87.38a24.3,24.3,0,0,0,10.63,20.07l.44.3v10.87L84.65,125.7a17.12,17.12,0,0,0-12.42,16.41V161.3H64.77v5.22h41.8V161.3H97.66v-9.87H92.45v9.87h-15V142.11a11.86,11.86,0,0,1,8.62-11.38l25.28-7.13.42.45a15.19,15.19,0,0,0,22.4,0ZM105,70.45a19,19,0,0,1,37,6.35v7l-9.09-12H104.54Zm-1.09,16.93V77h26.41l11.18,14.78-.13.47a19,19,0,0,1-37.46-4.87Zm11.29,32.68-.22-.28v-9.45l1.28.37a24.22,24.22,0,0,0,13.4,0l1.28-.37v9.45l-.23.28a10,10,0,0,1-15.51,0Z"/><rect class="cls-4" x="135.32" y="132.55" width="5.22" height="8.56" transform="translate(-31.21 232.42) rotate(-74.24)"/><rect class="cls-5" x="150.82" y="138.58" width="5.22" height="5.22" transform="translate(-24.13 250.49) rotate(-74.24)"/><rect class="cls-6" x="179.08" y="61.67" width="5.22" height="5.22"/><rect class="cls-7" x="155.97" y="199.8" width="5.22" height="5.22"/><rect class="cls-8" x="20.25" y="120.39" width="5.22" height="5.22"/></svg>