<svg id="Layer_1" data-name="Layer 1" xmlns="http://www.w3.org/2000/svg" viewBox="0 0 20 15"><defs><style>.cls-1{fill:#14315d;}</style></defs><title>email</title><path class="cls-1" d="M20,1.88V13.12A1.88,1.88,0,0,1,18.12,15H1.88A1.88,1.88,0,0,1,0,13.12V1.88A1.88,1.88,0,0,1,1.88,0H18.12A1.88,1.88,0,0,1,20,1.88Zm-18.12,0V3.47c.87.71,2.27,1.82,5.25,4.16.66.52,2,1.76,2.87,1.75s2.21-1.23,2.87-1.75c3-2.34,4.38-3.45,5.25-4.16V1.88ZM18.12,13.12V5.88L14,9.1c-.89.7-2.36,2.16-4,2.15S6.83,9.78,6,9.1L1.88,5.88v7.24Z"/></svg>