<svg id="Layer_1" data-name="Layer 1" xmlns="http://www.w3.org/2000/svg" viewBox="0 0 19.38 18.89" fill="#14315D"><title>github</title><path d="M19.38,9.53a9.71,9.71,0,0,1-6.56,9.34c-.5.09-.68-.22-.68-.48s0-1.94,0-3.26a2.29,2.29,0,0,0-.67-1.81C13.68,13.07,16,12.77,16,9a3.05,3.05,0,0,0-1-2.3,3.72,3.72,0,0,0-.1-2.65c-.82-.26-2.7,1-2.7,1a9.26,9.26,0,0,0-4.9,0s-1.88-1.31-2.7-1a3.72,3.72,0,0,0-.1,2.65A3,3,0,0,0,3.55,9c0,3.76,2.2,4.07,4.38,4.32a2.15,2.15,0,0,0-.62,1.31,2.07,2.07,0,0,1-2.85-.81,2.06,2.06,0,0,0-1.51-1c-1,0-.06.6-.06.6C3.53,13.7,4,14.84,4,14.84,4.55,16.59,7.29,16,7.29,16c0,.82,0,2.16,0,2.4s-.18.56-.68.48A9.81,9.81,0,0,1,0,9.53,9.36,9.36,0,0,1,9.56,0,9.58,9.58,0,0,1,19.38,9.53ZM3.54,13.13c.08,0,.12.1.09.15s-.1.07-.17,0-.11-.1-.08-.15S3.46,13.11,3.54,13.13Zm.46.38c.07.08.08.17,0,.2s-.14,0-.21,0-.07-.17,0-.21S3.94,13.45,4,13.51Zm.41.54c.07.09.07.19,0,.24s-.15,0-.21-.09S4.13,14,4.2,14,4.36,14,4.41,14.05Zm.48.54c.08.07.11.19.06.24s-.17.05-.26,0-.11-.19-.05-.24S4.81,14.5,4.89,14.59Zm.62.36c.11,0,.19.12.17.2a.19.19,0,0,1-.25.08c-.11,0-.19-.12-.16-.19S5.41,14.92,5.51,15Zm.77.4c-.13,0-.22,0-.22-.14s.09-.14.2-.14.22,0,.22.14S6.39,15.35,6.28,15.35Zm.94-.27c0,.08-.06.15-.18.18s-.22,0-.23-.1S6.88,15,7,15,7.21,15,7.22,15.08Z"/></svg>
