<svg xmlns="http://www.w3.org/2000/svg" width="118.32" height="24.04" viewBox="0 0 118.32 24.04">
  <defs>
    <style>
      .a {
        fill: #14315d;
      }

      .b {
        fill: #fff;
      }

      .c {
        fill: #f74d7b;
      }

      .d {
        fill: #26abe8;
      }
    </style>
  </defs>
  <g>
    <polygon class="a" points="11.19 0.38 1.02 3.92 1.73 17.95 11.19 23.84 20.65 17.95 21.36 3.92 11.19 0.38"/>
    <polygon class="b" points="11.19 2.66 8.07 3.8 7.47 12.12 11.19 13.97 10.47 21.13 11.18 21.58 12.23 20.91 15.87 12.12 12.2 10.15 13.95 3.67 11.19 2.66"/>
    <polygon class="c" points="2.99 5.64 8.07 3.8 7.47 12.12 11.19 13.97 10.47 21.13 3.75 16.84 2.99 5.64"/>
    <polygon class="d" points="18.63 16.84 12.23 20.91 15.87 12.12 12.2 10.15 13.95 3.67 19.39 5.64 18.63 16.84"/>
  </g>
  <g>
    <path class="b" d="M25.76,5.27h8.32C37,5.27,38.37,7.16,38.37,9a3.28,3.28,0,0,1-2.51,3.37A3.51,3.51,0,0,1,38.66,16c0,2.14-1.43,4-4.31,4H25.76ZM33.22,11a1.24,1.24,0,0,0,1.3-1.28,1.22,1.22,0,0,0-1.3-1.25H29.55V11Zm.14,5.85a1.31,1.31,0,0,0,1.45-1.34,1.36,1.36,0,0,0-1.45-1.39H29.55V16.8Z"/>
    <path class="b" d="M41.36,5.27h3.79V20H41.36Z"/>
    <path class="b" d="M55.52,5A6.9,6.9,0,0,1,61.8,8.44l-3.17,1.67a3.66,3.66,0,0,0-3.11-1.74,4.06,4.06,0,0,0-4.09,4.25,4.06,4.06,0,0,0,4.09,4.25A4.62,4.62,0,0,0,58.3,16V14.75H54.93V11.61H62v5.74a8.49,8.49,0,0,1-6.5,2.86c-4.37,0-7.94-2.93-7.94-7.59S51.15,5,55.52,5Z"/>
    <path class="b" d="M67.77,8.57H63.66V5.27h12v3.3H71.56V20H67.77Z"/>
    <path class="b" d="M77.61,5.27H88.37V8.46h-7V10.9h6.82v3.22H81.4v2.64h7V20H77.61Z"/>
    <path class="b" d="M92.23,15A6.64,6.64,0,0,0,96.92,17c1.3,0,2.09-.55,2.09-1.26s-1-1.16-2.51-1.49c-2.42-.49-5.81-1.1-5.81-4.58,0-2.46,2.09-4.6,5.85-4.6a8.92,8.92,0,0,1,6,2.05l-2.07,2.7A6.84,6.84,0,0,0,96.3,8.28c-1.25,0-1.74.51-1.74,1.15s.91,1,2.54,1.34c2.42.51,5.76,1.21,5.76,4.53,0,2.95-2.18,4.91-6.12,4.91a9,9,0,0,1-6.51-2.33Z"/>
    <path class="b" d="M108.33,8.57h-4.12V5.27h12v3.3h-4.09V20h-3.78Z"/>
  </g>
</svg>
